<svg width="39" height="39" viewBox="0 0 39 39" fill="none" xmlns="http://www.w3.org/2000/svg">
<rect width="39" height="39" rx="7" fill="black"/>
<path d="M30.2731 13.7898C29.7535 13.3804 28.9112 13.3806 28.3919 13.7902C27.8726 14.1997 27.8728 14.8636 28.3924 15.2729C29.648 16.2619 30.3395 17.578 30.3395 18.9788C30.3395 20.3798 29.6472 21.6963 28.3901 22.6859C27.8704 23.0951 27.8699 23.7589 28.3891 24.1686C28.6489 24.3736 28.9895 24.4761 29.3302 24.4761C29.6703 24.4761 30.0106 24.3738 30.2703 24.1694C32.0305 22.7837 33 20.9403 33 18.9788C33 17.0177 32.0316 15.1749 30.2731 13.7898Z" fill="white"/>
<path d="M25.34 16.5093C24.8867 16.8797 24.8867 17.4804 25.34 17.8509C25.5593 18.0301 25.6801 18.2683 25.6801 18.5217C25.6801 18.775 25.5593 19.0133 25.34 19.1924C24.8867 19.5629 24.8867 20.1635 25.34 20.534C25.5667 20.7193 25.8638 20.8119 26.1608 20.8119C26.4578 20.8119 26.755 20.7193 26.9816 20.534C28.3395 19.4244 28.3395 17.6189 26.9816 16.5093C26.5284 16.1388 25.7934 16.1388 25.34 16.5093Z" fill="white"/>
<path d="M22.3414 14.5353V13.9596C22.3414 10.1608 18.9004 7.07031 14.6707 7.07031C10.441 7.07031 7 10.1608 7 13.9596V14.8525C7 16.9409 8.07904 18.9175 9.90243 20.1977V24.8336C9.90243 25.1421 10.1809 25.3922 10.5244 25.3922H17.9878C18.3313 25.3922 18.6097 25.1421 18.6097 24.8336V23.0834H20.4756C21.5044 23.0834 22.3414 22.3316 22.3414 21.4076V20.6628C22.3414 20.4702 22.231 20.2912 22.0491 20.1891L21.2344 19.7318L22.0491 19.2745C22.231 19.1724 22.3414 18.9934 22.3414 18.8008V17.7474L23.5289 17.4807C23.7251 17.4367 23.8852 17.3097 23.9582 17.1402C24.0311 16.9708 24.0077 16.7801 23.8955 16.629L22.3414 14.5353Z" fill="white"/>
<path d="M14.9073 17.7863C14.5588 17.5704 14.0853 17.6541 13.8496 17.9734C13.7041 18.1705 13.5285 18.2825 13.3278 18.306C13.0752 18.3355 12.7775 18.2243 12.4894 17.9924C11.6419 17.3101 11.2313 15.9064 11.5929 14.9272C11.7158 14.5944 11.9129 14.3616 12.1478 14.2715C12.3345 14.2001 12.5477 14.2166 12.7813 14.3207C13.1597 14.4891 13.6155 14.3449 13.7994 13.9983C13.9834 13.6517 13.8258 13.2341 13.4475 13.0655C12.8213 12.7866 12.151 12.7576 11.5602 12.9839C10.9159 13.2307 10.415 13.7621 10.1498 14.48C9.59332 15.9871 10.1793 17.9904 11.4838 19.0407C12.0235 19.4751 12.6403 19.7063 13.247 19.7063C13.3389 19.7063 13.4306 19.701 13.5218 19.6902C14.157 19.6156 14.7216 19.2835 15.1117 18.7551C15.3472 18.436 15.2558 18.0022 14.9073 17.7863Z" fill="white"/>
</svg>
